<?xml version="1.0" standalone="no"?>
<!DOCTYPE svg PUBLIC "-//W3C//DTD SVG 20010904//EN"
 "http://www.w3.org/TR/2001/REC-SVG-20010904/DTD/svg10.dtd">
<svg version="1.0" xmlns="http://www.w3.org/2000/svg"
 width="640.000000pt" height="640.000000pt" viewBox="0 0 640.000000 640.000000"
 preserveAspectRatio="xMidYMid meet">
  <style>
    path {
      fill: black;
    }
    @media (prefers-color-scheme: dark) {
      path {
        fill: white;
      }
    }
  </style>
<g transform="translate(0.000000,640.000000) scale(0.100000,-0.100000)"
fill="#000000" stroke="none">
<path d="M3430 6384 c-14 -2 -59 -9 -100 -15 -159 -23 -291 -79 -495 -207
-142 -90 -170 -126 -170 -220 0 -55 4 -73 24 -100 57 -81 169 -129 274 -118
75 8 128 32 197 90 68 58 197 123 269 136 75 14 174 12 252 -4 148 -32 305
-145 365 -264 26 -51 29 -67 29 -152 0 -85 -4 -103 -33 -170 -48 -112 -41
-180 27 -253 46 -50 97 -70 192 -75 l85 -4 191 76 c239 96 299 109 463 103
144 -5 215 -24 354 -93 255 -128 425 -312 472 -510 28 -119 7 -216 -76 -356
-62 -103 -159 -201 -275 -276 -119 -77 -141 -96 -165 -142 -41 -82 -33 -154
26 -220 19 -21 80 -63 138 -95 235 -128 319 -282 241 -441 -60 -122 -230 -252
-356 -272 -31 -4 -96 -4 -153 2 -121 12 -187 0 -257 -45 -83 -53 -121 -150
-90 -232 5 -13 66 -102 136 -196 144 -196 198 -289 219 -381 32 -135 10 -215
-84 -309 -169 -169 -404 -229 -610 -156 -202 71 -370 309 -445 632 -36 154
-61 375 -71 633 l-7 155 104 38 c151 55 370 167 477 244 235 168 398 386 454
605 27 109 22 290 -11 388 -71 208 -258 395 -462 465 -73 25 -99 28 -204 29
-109 0 -128 -2 -205 -30 -195 -69 -340 -212 -466 -461 -104 -203 -184 -516
-205 -798 -6 -82 -13 -155 -14 -162 -3 -10 -39 -20 -136 -38 l-36 -7 -6 284
c-8 399 -31 631 -92 934 -75 370 -206 727 -362 990 -238 400 -561 656 -915
725 -94 19 -306 16 -411 -5 -205 -40 -424 -134 -632 -270 -426 -280 -709 -685
-816 -1168 -30 -136 -37 -401 -14 -540 86 -526 457 -889 910 -892 245 -1 459
93 526 232 30 62 32 152 3 207 -24 46 -96 99 -157 116 -111 30 -254 -11 -319
-92 -30 -37 -35 -40 -68 -34 -177 33 -332 279 -370 585 -24 204 30 471 142
695 153 303 444 573 752 695 275 110 457 64 679 -170 215 -226 381 -571 492
-1020 77 -315 104 -567 112 -1032 l6 -347 -24 -10 c-13 -5 -93 -28 -177 -51
-547 -146 -1047 -370 -1385 -621 -439 -326 -770 -793 -868 -1225 -29 -128 -32
-353 -6 -456 76 -307 276 -539 548 -639 249 -91 539 -93 806 -4 243 81 442
212 668 439 200 202 349 416 499 721 217 439 368 938 428 1411 l12 92 100 20
c56 11 104 18 107 16 3 -2 9 -72 12 -156 25 -583 163 -991 426 -1256 140 -141
301 -236 496 -289 94 -26 112 -28 300 -27 176 0 211 2 290 23 363 94 672 345
758 616 33 104 30 267 -7 390 -29 97 -85 216 -136 290 -18 26 -30 48 -28 49 1
2 28 11 58 21 256 82 524 326 618 562 24 62 26 80 27 203 0 127 -2 139 -31
210 -41 101 -103 190 -194 278 l-76 73 77 78 c41 42 99 110 128 151 181 258
232 469 175 718 -89 393 -554 790 -1064 908 -147 35 -373 43 -528 20 -62 -9
-119 -19 -127 -22 -10 -4 -16 5 -20 33 -63 376 -441 684 -910 742 -85 10 -220
13 -275 5z m976 -2176 c122 -112 141 -289 50 -452 -70 -124 -216 -256 -373
-335 -75 -37 -72 -43 -48 109 34 204 88 380 163 522 43 83 132 198 153 198 5
0 30 -19 55 -42z m-1746 -1806 c-118 -576 -350 -1124 -627 -1480 -185 -237
-437 -425 -638 -477 -71 -18 -200 -21 -268 -6 -139 32 -239 139 -295 315 -25
79 -23 269 5 371 80 296 318 642 604 881 252 210 636 401 1094 544 l150 47 3
-22 c2 -13 -11 -90 -28 -173z"/>
</g>
</svg>
